<?xml version="1.0" ?><!DOCTYPE svg  PUBLIC '-//W3C//DTD SVG 1.1//EN'  'http://www.w3.org/Graphics/SVG/1.1/DTD/svg11.dtd'><svg height="6.82666in" style="shape-rendering:geometricPrecision; text-rendering:geometricPrecision; image-rendering:optimizeQuality; fill-rule:evenodd; clip-rule:evenodd" viewBox="0 0 6.82666 6.82666" width="6.82666in" xml:space="preserve" xmlns="http://www.w3.org/2000/svg" xmlns:xlink="http://www.w3.org/1999/xlink"><defs><style type="text/css">
   <![CDATA[
    .fil1 {fill:none}
    .fil0 {fill:#212121;fill-rule:nonzero}
   ]]>
  </style></defs><g id="Layer_x0020_1"><polygon class="fil0" points="4.74119,3.9881 4.74119,5.90868 4.74119,5.96202 4.68785,5.96202 1.73311,5.96202 1.67978,5.96202 1.67978,5.90868 1.67978,3.9881 1.78644,3.9881 1.78644,5.85535 4.63452,5.85535 4.63452,3.9881 "/><polygon class="fil0" points="2.25019,5.05481 4.17078,5.05481 4.17078,5.16148 2.25019,5.16148 "/><polygon class="fil0" points="2.31752,4.25095 4.22726,4.45478 4.216,4.56061 2.30626,4.35679 "/><polygon class="fil0" points="2.44622,3.43784 4.29674,3.95188 4.26841,4.05438 2.41789,3.54034 "/><polygon class="fil0" points="2.89788,2.46447 4.56636,3.4157 4.51387,3.50819 2.84539,2.55697 "/><polygon class="fil0" points="3.81015,1.51635 4.94536,3.06553 4.85952,3.12844 3.72432,1.57926 "/><polygon class="fil0" points="5.02048,0.99076 5.43193,2.86676 5.32777,2.88925 4.91631,1.01326 "/></g><rect class="fil1" height="6.82666" width="6.82666"/></svg>